<svg xmlns="http://www.w3.org/2000/svg" viewBox="0 0 5307 688" role="img" aria-label="LAVANDA"><path d="M0 0H221V512H574V688H0Z M1128 688 1099 591H858L829 688H603L854 0H1111L1362 688ZM904 437H1053L981 192H977Z M1632 688 1388 0H1624L1762 460H1766L1905 0H2131L1888 688Z M2684 688 2655 591H2414L2385 688H2159L2410 0H2667L2918 688ZM2460 437H2609L2537 192H2533Z M3493 688 3204 354V688H3001V0H3194L3483 339V0H3686V688Z M4493 344Q4493 688 4132 688H3834V0H4132Q4493 0 4493 344ZM4055 523H4128Q4267 523 4267 374V314Q4267 165 4128 165H4055Z M5073 688 5044 591H4803L4774 688H4548L4799 0H5056L5307 688ZM4849 437H4998L4926 192H4922Z" fill="currentColor"/></svg>